<svg xmlns="http://www.w3.org/2000/svg" width="48" height="192" viewBox="0 0 48 192">
  <defs><linearGradient id="cobalt" x1="0" y1="0" x2="1" y2="0"><stop offset="0" stop-color="#0b3868"/><stop offset=".35" stop-color="#2f6fa8"/><stop offset=".68" stop-color="#174f87"/><stop offset="1" stop-color="#082e57"/></linearGradient><filter id="glaze" x="-15%" y="-5%" width="130%" height="110%"><feTurbulence type="fractalNoise" baseFrequency=".38 .055" numOctaves="3" seed="17" result="n"/><feColorMatrix in="n" values="1 0 0 0 0 0 1 0 0 0 0 0 1 0 0 0 0 0 .14 0" result="g"/><feBlend in="SourceGraphic" in2="g" mode="soft-light"/></filter></defs>
  <rect width="48" height="192" rx="8" fill="url(#cobalt)" filter="url(#glaze)"/><path d="M5 0V192M43 0V192" stroke="#d7e8f0" opacity=".58"/><g fill="none" stroke="#d7e8f0" stroke-linecap="round" stroke-linejoin="round"><path d="M24-8C5 8 6 27 24 40C42 53 42 72 24 87C6 102 6 121 24 136C42 151 42 171 24 200" stroke-width="2" opacity=".9"/><path d="M13 39C17 31 22 30 24 39C28 31 33 31 36 39C31 42 27 45 24 51C21 45 18 42 13 39ZM12 135C17 127 22 126 24 135C28 127 33 127 36 135C31 138 27 141 24 147C21 141 17 138 12 135Z" stroke-width="1.25"/></g><path d="M10 0V192" stroke="#fff" stroke-width="2" opacity=".18"/>
</svg>
